<svg xmlns="http://www.w3.org/2000/svg" version="1.1" xmlns:xlink="http://www.w3.org/1999/xlink" xmlns:svgjs="http://svgjs.dev/svgjs" width="758" height="266" preserveAspectRatio="none" viewBox="0 0 758 266"><g mask="url(&quot;#SvgjsMask1096&quot;)" fill="none"><rect width="758" height="266" x="0" y="0" fill="#0e2a47"></rect><path d="M0,254.83C53.315,253.224,106.658,262.668,156.352,243.288C213.158,221.134,280.914,195.029,300.976,137.451C321.151,79.549,271.311,22.277,253.839,-36.497C239.271,-85.502,232.928,-135.258,206.835,-179.223C176.449,-230.422,146.859,-289.453,91.188,-310.558C34.714,-331.967,-30.006,-314.596,-85.124,-289.904C-136.127,-267.055,-176.817,-225.944,-205.179,-177.788C-230.58,-134.66,-230.596,-83.687,-235.89,-33.916C-240.981,13.949,-247.459,60.929,-235.531,107.563C-221.819,161.17,-209.443,223.561,-162.526,252.896C-115.638,282.213,-55.274,256.495,0,254.83" fill="#091b2e"></path><path d="M758 463.852C799.443 463.331 844.392 477.084 879.503 455.062 914.683 432.997 923.9300000000001 387.423 940.54 349.363 956.859 311.969 974.008 275.47 975.67 234.704 977.582 187.796 978.063 137.165 950.746 98.98400000000001 922.6610000000001 59.72900000000001 875.736 34.17500000000001 827.853 28.102000000000004 782.607 22.363 741.455 48.99799999999999 699.607 67.132 662.769 83.095 630.67 103.887 598.266 127.59 556.379 158.22899999999998 494.509 175.952 481.986 226.315 469.598 276.133 510.76 323.14 538.977 366.025 563.796 403.745 593.292 439.726 634.519 458.14 672.919 475.291 715.947 464.38 758 463.852" fill="#133960"></path></g><defs><mask id="SvgjsMask1096"><rect width="758" height="266" fill="#ffffff"></rect></mask></defs></svg>