<?xml version="1.0" encoding="utf-8"?>
<!-- Generator: Adobe Illustrator 27.5.0, SVG Export Plug-In . SVG Version: 6.00 Build 0)  -->
<svg version="1.1" xmlns="http://www.w3.org/2000/svg" xmlns:xlink="http://www.w3.org/1999/xlink" x="0px" y="0px"
	 viewBox="0 0 2200 2200" style="enable-background:new 0 0 2200 2200;" xml:space="preserve">
<g id="background">
	<rect style="fill:#FFFFFF;" width="2200" height="2200"/>
</g>
<g id="Objects">
	<g>
		<path style="fill:#FFFFFF;" d="M1917,798.354v1054.375c0,55.89-45.31,101.2-101.2,101.2H384.2c-55.89,0-101.2-45.31-101.2-101.2
			V798.354H1917z"/>
		<path style="fill:#C2E9FF;" d="M283,798.354V517.128c0-55.89,45.31-101.2,101.2-101.2h100.3h1231h100.3
			c55.89,0,101.2,45.31,101.2,101.2v281.226H283z"/>
		<rect x="283" y="753.168" style="fill:#A0D3EA;" width="1634" height="45.19"/>
		<rect x="283" y="798.354" style="fill:#E2EAED;" width="1634" height="45.19"/>
		<circle style="fill:#92CADD;" cx="537.922" cy="539.257" r="86.753"/>
		<circle style="fill:#92CADD;" cx="912.641" cy="539.257" r="86.753"/>
		<circle style="fill:#92CADD;" cx="1287.359" cy="539.257" r="86.753"/>
		<circle style="fill:#92CADD;" cx="1662.078" cy="539.257" r="86.753"/>
		<path style="fill:#666666;" d="M912.641,585.784L912.641,585.784c-29.505,0-53.423-23.918-53.423-53.422V299.494
			c0-29.504,23.918-53.422,53.422-53.422h0c29.504,0,53.422,23.918,53.422,53.422v232.867
			C966.063,561.866,942.145,585.784,912.641,585.784z"/>
		<path style="fill:#666666;" d="M1287.359,585.784L1287.359,585.784c-29.505,0-53.423-23.918-53.423-53.422V299.494
			c0-29.504,23.918-53.422,53.422-53.422h0c29.504,0,53.422,23.918,53.422,53.422v232.867
			C1340.782,561.866,1316.864,585.784,1287.359,585.784z"/>
		<path style="fill:#666666;" d="M1662.078,585.784L1662.078,585.784c-29.504,0-53.422-23.918-53.422-53.422V299.494
			c0-29.504,23.918-53.422,53.422-53.422l0,0c29.504,0,53.422,23.918,53.422,53.422v232.867
			C1715.5,561.866,1691.582,585.784,1662.078,585.784z"/>
		<path style="fill:#666666;" d="M537.923,585.784L537.923,585.784c-29.505,0-53.423-23.918-53.423-53.422V299.494
			c0-29.504,23.918-53.422,53.422-53.422h0c29.504,0,53.422,23.918,53.422,53.422v232.867
			C591.345,561.866,567.427,585.784,537.923,585.784z"/>
		<g>
			<path style="fill:#383838;" d="M1815.8,405.928h-90.3V299.494c0-34.971-28.451-63.422-63.423-63.422
				c-34.971,0-63.422,28.451-63.422,63.422v106.434h-247.874V299.494c0-34.971-28.451-63.422-63.422-63.422
				c-34.972,0-63.423,28.451-63.423,63.422v106.434H976.063V299.494c0-34.971-28.451-63.422-63.423-63.422
				c-34.971,0-63.422,28.451-63.422,63.422v106.434H601.345V299.494c0-34.971-28.451-63.422-63.422-63.422
				c-34.972,0-63.423,28.451-63.423,63.422v106.434h-90.3c-61.316,0-111.2,49.884-111.2,111.2v1335.601
				c0,61.315,49.884,111.199,111.2,111.199h1431.6c61.316,0,111.2-49.884,111.2-111.199V517.128
				C1927,455.813,1877.116,405.928,1815.8,405.928z M1662.077,256.072c23.943,0,43.423,19.479,43.423,43.422v232.868
				c0,23.943-19.479,43.422-43.423,43.422s-43.422-19.479-43.422-43.422V416.025c0-0.033,0.005-0.064,0.005-0.097
				s-0.005-0.064-0.005-0.097V299.494C1618.655,275.551,1638.134,256.072,1662.077,256.072z M1287.359,256.072
				c23.943,0,43.422,19.479,43.422,43.422v116.415c0,0.007-0.001,0.013-0.001,0.019s0.001,0.013,0.001,0.019v116.414
				c0,23.943-19.479,43.422-43.422,43.422s-43.423-19.479-43.423-43.422V416.006c0-0.026,0.004-0.051,0.004-0.077
				s-0.004-0.051-0.004-0.077V299.494C1243.937,275.551,1263.416,256.072,1287.359,256.072z M912.641,256.072
				c23.943,0,43.423,19.479,43.423,43.422v116.357c0,0.026-0.004,0.051-0.004,0.077s0.004,0.051,0.004,0.077v116.356
				c0,23.943-19.479,43.422-43.423,43.422s-43.422-19.479-43.422-43.422V415.948c0-0.007,0.001-0.013,0.001-0.019
				s-0.001-0.013-0.001-0.019V299.494C869.219,275.551,888.697,256.072,912.641,256.072z M494.5,299.494
				c0-23.943,19.479-43.422,43.423-43.422s43.422,19.479,43.422,43.422v116.337c0,0.033-0.005,0.064-0.005,0.097
				s0.005,0.064,0.005,0.097v116.337c0,23.943-19.479,43.422-43.422,43.422S494.5,556.305,494.5,532.362V299.494z M384.2,425.928
				h90.3v106.434c0,34.971,28.451,63.422,63.423,63.422c34.971,0,63.422-28.451,63.422-63.422V425.928h247.874v106.434
				c0,34.971,28.451,63.422,63.422,63.422c34.972,0,63.423-28.451,63.423-63.422V425.928h247.873v106.434
				c0,34.971,28.451,63.422,63.423,63.422c34.971,0,63.422-28.451,63.422-63.422V425.928h247.874v106.434
				c0,34.971,28.451,63.422,63.422,63.422c34.972,0,63.423-28.451,63.423-63.422V425.928h90.3c50.288,0,91.2,40.912,91.2,91.2
				v271.226H293V517.128C293,466.84,333.912,425.928,384.2,425.928z M1815.8,1943.928H384.2c-50.288,0-91.2-40.912-91.2-91.199
				V808.354h1614v1044.375C1907,1903.016,1866.088,1943.928,1815.8,1943.928z"/>
			<path style="fill:#383838;" d="M1103.931,1407.778c-26.61-24.536-62.105-38.875-106.492-43.011v-2.48
				c23.159-4.686,44.18-13.092,63.067-25.228c18.882-12.129,33.842-27.638,44.872-46.525c11.023-18.882,16.542-40.736,16.542-65.55
				v-0.827c0-31.431-8.685-58.861-26.054-82.299c-17.37-23.431-41.841-41.698-73.407-54.797
				c-31.573-13.092-68.858-19.644-111.868-19.644c-41.635,0-78.306,7.102-110.008,21.298c-31.708,14.203-56.864,34.119-75.475,59.76
				s-29.435,55.695-32.465,90.156l-0.413,5.376H807.2l0.413-4.135c1.926-15.438,7.303-28.879,16.129-40.322
				c8.821-11.438,20.679-20.266,35.566-26.469c14.889-6.203,31.98-9.305,51.282-9.305c19.572,0,36.322,3.037,50.247,9.098
				c13.919,6.068,24.536,14.889,31.845,26.469c7.302,11.579,10.959,25.505,10.959,41.77v0.827c0,15.993-4.277,30.055-12.82,42.184
				c-8.549,12.135-20.472,21.646-35.773,28.535c-15.302,6.896-33.434,10.339-54.383,10.339h-66.584v89.329h68.238
				c36.115,0,64.237,7.587,84.366,22.746c20.122,15.166,30.19,36.949,30.19,65.343v0.827c0,16.271-4.343,30.675-13.027,43.217
				c-8.685,12.55-20.885,22.333-36.601,29.363c-15.715,7.03-34.325,10.546-55.831,10.546c-32.257,0-58.383-7.096-78.369-21.299
				c-19.993-14.196-31.224-31.908-33.705-53.143l-0.827-4.549h-119.52l0.413,5.376c3.031,34.19,14.333,64.38,33.912,90.57
				c19.573,26.196,46.248,46.668,80.024,61.414c33.77,14.746,73.265,22.125,118.485,22.125c46.59,0,87.262-7.444,122.001-22.332
				c34.738-14.889,61.756-35.773,81.058-62.654c19.295-26.882,28.949-58.105,28.949-93.672v-0.827
				C1143.839,1464.85,1130.534,1432.32,1103.931,1407.778z"/>
			<polygon style="fill:#383838;" points="1217.453,1184.869 1217.453,1295.703 1369.644,1192.313 1372.125,1192.313 
				1372.125,1674.525 1496.193,1674.525 1496.193,1077.757 1371.711,1077.757 			"/>
		</g>
	</g>
</g>
</svg>
