<svg xmlns="http://www.w3.org/2000/svg" version="1.1" xmlns:xlink="http://www.w3.org/1999/xlink" xmlns:svgjs="http://svgjs.dev/svgjs" width="758" height="160" preserveAspectRatio="none" viewBox="0 0 758 160"><g mask="url(&quot;#SvgjsMask1048&quot;)" fill="none"><rect width="758" height="160" x="0" y="0" fill="#0e2a47"></rect><path d="M211 119L294 36" stroke-width="10" stroke="url(&quot;#SvgjsLinearGradient1049&quot;)" stroke-linecap="round" class="TopRight"></path><path d="M373 93L329 137" stroke-width="8" stroke="url(&quot;#SvgjsLinearGradient1049&quot;)" stroke-linecap="round" class="TopRight"></path><path d="M538 60L640 -42" stroke-width="10" stroke="url(&quot;#SvgjsLinearGradient1050&quot;)" stroke-linecap="round" class="BottomLeft"></path><path d="M408 124L325 207" stroke-width="8" stroke="url(&quot;#SvgjsLinearGradient1050&quot;)" stroke-linecap="round" class="BottomLeft"></path><path d="M613 106L527 192" stroke-width="8" stroke="url(&quot;#SvgjsLinearGradient1049&quot;)" stroke-linecap="round" class="TopRight"></path><path d="M18 68L80 6" stroke-width="6" stroke="url(&quot;#SvgjsLinearGradient1049&quot;)" stroke-linecap="round" class="TopRight"></path><path d="M25 21L-37 83" stroke-width="10" stroke="url(&quot;#SvgjsLinearGradient1049&quot;)" stroke-linecap="round" class="TopRight"></path><path d="M35 38L151 -78" stroke-width="8" stroke="url(&quot;#SvgjsLinearGradient1050&quot;)" stroke-linecap="round" class="BottomLeft"></path><path d="M91 125L189 27" stroke-width="8" stroke="url(&quot;#SvgjsLinearGradient1049&quot;)" stroke-linecap="round" class="TopRight"></path><path d="M573 10L495 88" stroke-width="10" stroke="url(&quot;#SvgjsLinearGradient1049&quot;)" stroke-linecap="round" class="TopRight"></path><path d="M394 96L455 35" stroke-width="8" stroke="url(&quot;#SvgjsLinearGradient1049&quot;)" stroke-linecap="round" class="TopRight"></path><path d="M595 5L529 71" stroke-width="6" stroke="url(&quot;#SvgjsLinearGradient1050&quot;)" stroke-linecap="round" class="BottomLeft"></path><path d="M700 88L750 38" stroke-width="8" stroke="url(&quot;#SvgjsLinearGradient1049&quot;)" stroke-linecap="round" class="TopRight"></path><path d="M583 88L464 207" stroke-width="6" stroke="url(&quot;#SvgjsLinearGradient1049&quot;)" stroke-linecap="round" class="TopRight"></path><path d="M416 151L303 264" stroke-width="10" stroke="url(&quot;#SvgjsLinearGradient1050&quot;)" stroke-linecap="round" class="BottomLeft"></path><path d="M721 93L652 162" stroke-width="10" stroke="url(&quot;#SvgjsLinearGradient1049&quot;)" stroke-linecap="round" class="TopRight"></path><path d="M333 106L386 53" stroke-width="8" stroke="url(&quot;#SvgjsLinearGradient1050&quot;)" stroke-linecap="round" class="BottomLeft"></path><path d="M86 8L-8 102" stroke-width="10" stroke="url(&quot;#SvgjsLinearGradient1049&quot;)" stroke-linecap="round" class="TopRight"></path><path d="M40 62L102 0" stroke-width="8" stroke="url(&quot;#SvgjsLinearGradient1050&quot;)" stroke-linecap="round" class="BottomLeft"></path><path d="M215 63L148 130" stroke-width="8" stroke="url(&quot;#SvgjsLinearGradient1050&quot;)" stroke-linecap="round" class="BottomLeft"></path></g><defs><mask id="SvgjsMask1048"><rect width="758" height="160" fill="#ffffff"></rect></mask><linearGradient x1="0%" y1="100%" x2="100%" y2="0%" id="SvgjsLinearGradient1049"><stop stop-color="rgba(28, 83, 142, 0)" offset="0"></stop><stop stop-color="#1c538e" offset="1"></stop></linearGradient><linearGradient x1="100%" y1="0%" x2="0%" y2="100%" id="SvgjsLinearGradient1050"><stop stop-color="rgba(28, 83, 142, 0)" offset="0"></stop><stop stop-color="#1c538e" offset="1"></stop></linearGradient></defs></svg>