<svg xmlns="http://www.w3.org/2000/svg" version="1.1" xmlns:xlink="http://www.w3.org/1999/xlink" xmlns:svgjs="http://svgjs.dev/svgjs" width="1440" height="560" preserveAspectRatio="none" viewBox="0 0 1440 560"><g mask="url(&quot;#SvgjsMask1003&quot;)" fill="none"><rect width="1440" height="560" x="0" y="0" fill="#0e2a47"></rect><path d="M 0,152 C 57.6,133.4 172.8,41.2 288,59 C 403.2,76.8 460.8,252.4 576,241 C 691.2,229.6 748.8,1.2 864,2 C 979.2,2.8 1036.8,235.2 1152,245 C 1267.2,254.8 1382.4,89.8 1440,51L1440 560L0 560z" fill="#184a7e"></path><path d="M 0,397 C 96,401.8 288,425.8 480,421 C 672,416.2 768,372.2 960,373 C 1152,373.8 1344,414.6 1440,425L1440 560L0 560z" fill="#2264ab"></path></g><defs><mask id="SvgjsMask1003"><rect width="1440" height="560" fill="#ffffff"></rect></mask></defs></svg>