<svg xmlns="http://www.w3.org/2000/svg" version="1.1" xmlns:xlink="http://www.w3.org/1999/xlink" xmlns:svgjs="http://svgjs.dev/svgjs" width="1440" height="560" preserveAspectRatio="none" viewBox="0 0 1440 560"><g mask="url(&quot;#SvgjsMask1008&quot;)" fill="none"><rect width="1440" height="560" x="0" y="0" fill="#0e2a47"></rect><path d="M-101.82 380.89L-101.82 380.89" stroke="#132e65" stroke-width="1.5"></path><path d="M-101.82 380.89L-71.52 560.05" stroke="#132e65" stroke-width="1.5"></path><path d="M-101.82 380.89L110.5 350.03" stroke="#132e65" stroke-width="1.5"></path><path d="M-71.52 560.05L-71.52 560.05" stroke="#132e65" stroke-width="1.5"></path><path d="M-71.52 560.05L-39.09 664.32" stroke="#132e65" stroke-width="1.5"></path><path d="M-71.52 560.05L76.53 515.02" stroke="#132e65" stroke-width="1.5"></path><path d="M-39.09 664.32L-39.09 664.32" stroke="#132e65" stroke-width="1.5"></path><path d="M-39.09 664.32L75.04 690.99" stroke="#132e65" stroke-width="1.5"></path><path d="M-39.09 664.32L76.53 515.02" stroke="#132e65" stroke-width="1.5"></path><path d="M110.5 350.03L110.5 350.03" stroke="#132e65" stroke-width="1.5"></path><path d="M110.5 350.03L237.07 386.48" stroke="#132e65" stroke-width="1.5"></path><path d="M110.5 350.03L76.53 515.02" stroke="#132e65" stroke-width="1.5"></path><path d="M110.5 350.03L216.11 539.91" stroke="#132e65" stroke-width="1.5"></path><path d="M110.5 350.03L-71.52 560.05" stroke="#132e65" stroke-width="1.5"></path><path d="M76.53 515.02L76.53 515.02" stroke="#132e65" stroke-width="1.5"></path><path d="M76.53 515.02L216.11 539.91" stroke="#132e65" stroke-width="1.5"></path><path d="M75.04 690.99L75.04 690.99" stroke="#132e65" stroke-width="1.5"></path><path d="M75.04 690.99L204.69 656.47" stroke="#132e65" stroke-width="1.5"></path><path d="M75.04 690.99L76.53 515.02" stroke="#132e65" stroke-width="1.5"></path><path d="M75.04 690.99L-71.52 560.05" stroke="#132e65" stroke-width="1.5"></path><path d="M75.04 690.99L216.11 539.91" stroke="#132e65" stroke-width="1.5"></path><path d="M75.04 690.99L380.01 643.64" stroke="#132e65" stroke-width="1.5"></path><path d="M237.07 386.48L237.07 386.48" stroke="#132e65" stroke-width="1.5"></path><path d="M237.07 386.48L216.11 539.91" stroke="#132e65" stroke-width="1.5"></path><path d="M237.07 386.48L76.53 515.02" stroke="#132e65" stroke-width="1.5"></path><path d="M237.07 386.48L356.33 556.62" stroke="#132e65" stroke-width="1.5"></path><path d="M237.07 386.48L204.69 656.47" stroke="#132e65" stroke-width="1.5"></path><path d="M216.11 539.91L216.11 539.91" stroke="#132e65" stroke-width="1.5"></path><path d="M216.11 539.91L204.69 656.47" stroke="#132e65" stroke-width="1.5"></path><path d="M216.11 539.91L356.33 556.62" stroke="#132e65" stroke-width="1.5"></path><path d="M216.11 539.91L380.01 643.64" stroke="#132e65" stroke-width="1.5"></path><path d="M204.69 656.47L204.69 656.47" stroke="#132e65" stroke-width="1.5"></path><path d="M204.69 656.47L380.01 643.64" stroke="#132e65" stroke-width="1.5"></path><path d="M204.69 656.47L356.33 556.62" stroke="#132e65" stroke-width="1.5"></path><path d="M356.33 556.62L356.33 556.62" stroke="#132e65" stroke-width="1.5"></path><path d="M356.33 556.62L380.01 643.64" stroke="#132e65" stroke-width="1.5"></path><path d="M356.33 556.62L522.7 523.54" stroke="#132e65" stroke-width="1.5"></path><path d="M356.33 556.62L491.01 697.47" stroke="#132e65" stroke-width="1.5"></path><path d="M380.01 643.64L380.01 643.64" stroke="#132e65" stroke-width="1.5"></path><path d="M380.01 643.64L491.01 697.47" stroke="#132e65" stroke-width="1.5"></path><path d="M380.01 643.64L522.7 523.54" stroke="#132e65" stroke-width="1.5"></path><path d="M522.7 523.54L522.7 523.54" stroke="#132e65" stroke-width="1.5"></path><path d="M522.7 523.54L669.88 488.92" stroke="#132e65" stroke-width="1.5"></path><path d="M491.01 697.47L491.01 697.47" stroke="#132e65" stroke-width="1.5"></path><path d="M491.01 697.47L522.7 523.54" stroke="#132e65" stroke-width="1.5"></path><path d="M491.01 697.47L669.88 488.92" stroke="#132e65" stroke-width="1.5"></path><path d="M491.01 697.47L204.69 656.47" stroke="#132e65" stroke-width="1.5"></path><path d="M491.01 697.47L216.11 539.91" stroke="#132e65" stroke-width="1.5"></path><path d="M680.3 231.8L680.3 231.8" stroke="#132e65" stroke-width="1.5"></path><path d="M680.3 231.8L663.48 373.42" stroke="#132e65" stroke-width="1.5"></path><path d="M680.3 231.8L820.05 196.27" stroke="#132e65" stroke-width="1.5"></path><path d="M680.3 231.8L797.23 396.02" stroke="#132e65" stroke-width="1.5"></path><path d="M680.3 231.8L669.88 488.92" stroke="#132e65" stroke-width="1.5"></path><path d="M680.3 231.8L975.38 223.49" stroke="#132e65" stroke-width="1.5"></path><path d="M680.3 231.8L522.7 523.54" stroke="#132e65" stroke-width="1.5"></path><path d="M663.48 373.42L663.48 373.42" stroke="#132e65" stroke-width="1.5"></path><path d="M663.48 373.42L669.88 488.92" stroke="#132e65" stroke-width="1.5"></path><path d="M663.48 373.42L797.23 396.02" stroke="#132e65" stroke-width="1.5"></path><path d="M663.48 373.42L522.7 523.54" stroke="#132e65" stroke-width="1.5"></path><path d="M663.48 373.42L820.05 196.27" stroke="#132e65" stroke-width="1.5"></path><path d="M669.88 488.92L669.88 488.92" stroke="#132e65" stroke-width="1.5"></path><path d="M820.05 196.27L820.05 196.27" stroke="#132e65" stroke-width="1.5"></path><path d="M820.05 196.27L975.38 223.49" stroke="#132e65" stroke-width="1.5"></path><path d="M820.05 196.27L797.23 396.02" stroke="#132e65" stroke-width="1.5"></path><path d="M820.05 196.27L1008.7 78.07" stroke="#132e65" stroke-width="1.5"></path><path d="M797.23 396.02L797.23 396.02" stroke="#132e65" stroke-width="1.5"></path><path d="M797.23 396.02L828.7 545.19" stroke="#132e65" stroke-width="1.5"></path><path d="M797.23 396.02L669.88 488.92" stroke="#132e65" stroke-width="1.5"></path><path d="M828.7 545.19L828.7 545.19" stroke="#132e65" stroke-width="1.5"></path><path d="M828.7 545.19L977.27 490.07" stroke="#132e65" stroke-width="1.5"></path><path d="M861.81 707.56L861.81 707.56" stroke="#132e65" stroke-width="1.5"></path><path d="M861.81 707.56L956.44 692" stroke="#132e65" stroke-width="1.5"></path><path d="M861.81 707.56L828.7 545.19" stroke="#132e65" stroke-width="1.5"></path><path d="M971.14 -111.61L971.14 -111.61" stroke="#132e65" stroke-width="1.5"></path><path d="M971.14 -111.61L1008.7 78.07" stroke="#132e65" stroke-width="1.5"></path><path d="M971.14 -111.61L1156.47 -54.72" stroke="#132e65" stroke-width="1.5"></path><path d="M971.14 -111.61L1151.66 54.83" stroke="#132e65" stroke-width="1.5"></path><path d="M971.14 -111.61L975.38 223.49" stroke="#132e65" stroke-width="1.5"></path><path d="M971.14 -111.61L1299.84 -42.85" stroke="#132e65" stroke-width="1.5"></path><path d="M1008.7 78.07L1008.7 78.07" stroke="#132e65" stroke-width="1.5"></path><path d="M1008.7 78.07L1151.66 54.83" stroke="#132e65" stroke-width="1.5"></path><path d="M1008.7 78.07L975.38 223.49" stroke="#132e65" stroke-width="1.5"></path><path d="M1008.7 78.07L1108.55 230.12" stroke="#132e65" stroke-width="1.5"></path><path d="M975.38 223.49L975.38 223.49" stroke="#132e65" stroke-width="1.5"></path><path d="M975.38 223.49L1108.55 230.12" stroke="#132e65" stroke-width="1.5"></path><path d="M977.27 490.07L977.27 490.07" stroke="#132e65" stroke-width="1.5"></path><path d="M977.27 490.07L1121.73 537.7" stroke="#132e65" stroke-width="1.5"></path><path d="M977.27 490.07L1120 391.79" stroke="#132e65" stroke-width="1.5"></path><path d="M956.44 692L956.44 692" stroke="#132e65" stroke-width="1.5"></path><path d="M956.44 692L828.7 545.19" stroke="#132e65" stroke-width="1.5"></path><path d="M956.44 692L1156.18 668.94" stroke="#132e65" stroke-width="1.5"></path><path d="M956.44 692L977.27 490.07" stroke="#132e65" stroke-width="1.5"></path><path d="M1156.47 -54.72L1156.47 -54.72" stroke="#132e65" stroke-width="1.5"></path><path d="M1156.47 -54.72L1151.66 54.83" stroke="#132e65" stroke-width="1.5"></path><path d="M1156.47 -54.72L1299.84 -42.85" stroke="#132e65" stroke-width="1.5"></path><path d="M1156.47 -54.72L1292.14 81.55" stroke="#132e65" stroke-width="1.5"></path><path d="M1151.66 54.83L1151.66 54.83" stroke="#132e65" stroke-width="1.5"></path><path d="M1151.66 54.83L1292.14 81.55" stroke="#132e65" stroke-width="1.5"></path><path d="M1151.66 54.83L1299.84 -42.85" stroke="#132e65" stroke-width="1.5"></path><path d="M1151.66 54.83L1108.55 230.12" stroke="#132e65" stroke-width="1.5"></path><path d="M1108.55 230.12L1108.55 230.12" stroke="#132e65" stroke-width="1.5"></path><path d="M1108.55 230.12L1120 391.79" stroke="#132e65" stroke-width="1.5"></path><path d="M1108.55 230.12L1294.09 212.4" stroke="#132e65" stroke-width="1.5"></path><path d="M1108.55 230.12L1292.14 81.55" stroke="#132e65" stroke-width="1.5"></path><path d="M1120 391.79L1120 391.79" stroke="#132e65" stroke-width="1.5"></path><path d="M1120 391.79L1121.73 537.7" stroke="#132e65" stroke-width="1.5"></path><path d="M1120 391.79L1308.38 368.97" stroke="#132e65" stroke-width="1.5"></path><path d="M1120 391.79L975.38 223.49" stroke="#132e65" stroke-width="1.5"></path><path d="M1121.73 537.7L1121.73 537.7" stroke="#132e65" stroke-width="1.5"></path><path d="M1121.73 537.7L1156.18 668.94" stroke="#132e65" stroke-width="1.5"></path><path d="M1121.73 537.7L1283.8 559.15" stroke="#132e65" stroke-width="1.5"></path><path d="M1121.73 537.7L1277.26 671.67" stroke="#132e65" stroke-width="1.5"></path><path d="M1121.73 537.7L956.44 692" stroke="#132e65" stroke-width="1.5"></path><path d="M1156.18 668.94L1156.18 668.94" stroke="#132e65" stroke-width="1.5"></path><path d="M1156.18 668.94L1277.26 671.67" stroke="#132e65" stroke-width="1.5"></path><path d="M1299.84 -42.85L1299.84 -42.85" stroke="#132e65" stroke-width="1.5"></path><path d="M1299.84 -42.85L1292.14 81.55" stroke="#132e65" stroke-width="1.5"></path><path d="M1299.84 -42.85L1446 -73.23" stroke="#132e65" stroke-width="1.5"></path><path d="M1292.14 81.55L1292.14 81.55" stroke="#132e65" stroke-width="1.5"></path><path d="M1292.14 81.55L1294.09 212.4" stroke="#132e65" stroke-width="1.5"></path><path d="M1294.09 212.4L1294.09 212.4" stroke="#132e65" stroke-width="1.5"></path><path d="M1294.09 212.4L1308.38 368.97" stroke="#132e65" stroke-width="1.5"></path><path d="M1308.38 368.97L1308.38 368.97" stroke="#132e65" stroke-width="1.5"></path><path d="M1308.38 368.97L1447.48 343.41" stroke="#132e65" stroke-width="1.5"></path><path d="M1308.38 368.97L1283.8 559.15" stroke="#132e65" stroke-width="1.5"></path><path d="M1308.38 368.97L1406.78 550.87" stroke="#132e65" stroke-width="1.5"></path><path d="M1308.38 368.97L1108.55 230.12" stroke="#132e65" stroke-width="1.5"></path><path d="M1283.8 559.15L1283.8 559.15" stroke="#132e65" stroke-width="1.5"></path><path d="M1283.8 559.15L1277.26 671.67" stroke="#132e65" stroke-width="1.5"></path><path d="M1277.26 671.67L1277.26 671.67" stroke="#132e65" stroke-width="1.5"></path><path d="M1446 -73.23L1446 -73.23" stroke="#132e65" stroke-width="1.5"></path><path d="M1446 -73.23L1574.87 -108.52" stroke="#132e65" stroke-width="1.5"></path><path d="M1446 -73.23L1587.71 78.44" stroke="#132e65" stroke-width="1.5"></path><path d="M1446 -73.23L1292.14 81.55" stroke="#132e65" stroke-width="1.5"></path><path d="M1446 -73.23L1156.47 -54.72" stroke="#132e65" stroke-width="1.5"></path><path d="M1446 -73.23L1151.66 54.83" stroke="#132e65" stroke-width="1.5"></path><path d="M1447.48 343.41L1447.48 343.41" stroke="#132e65" stroke-width="1.5"></path><path d="M1447.48 343.41L1547.68 245.84" stroke="#132e65" stroke-width="1.5"></path><path d="M1447.48 343.41L1594.83 353.36" stroke="#132e65" stroke-width="1.5"></path><path d="M1447.48 343.41L1294.09 212.4" stroke="#132e65" stroke-width="1.5"></path><path d="M1447.48 343.41L1406.78 550.87" stroke="#132e65" stroke-width="1.5"></path><path d="M1406.78 550.87L1406.78 550.87" stroke="#132e65" stroke-width="1.5"></path><path d="M1406.78 550.87L1283.8 559.15" stroke="#132e65" stroke-width="1.5"></path><path d="M1406.78 550.87L1557 555.38" stroke="#132e65" stroke-width="1.5"></path><path d="M1406.78 550.87L1443.54 712.19" stroke="#132e65" stroke-width="1.5"></path><path d="M1406.78 550.87L1277.26 671.67" stroke="#132e65" stroke-width="1.5"></path><path d="M1443.54 712.19L1443.54 712.19" stroke="#132e65" stroke-width="1.5"></path><path d="M1443.54 712.19L1586.91 680.32" stroke="#132e65" stroke-width="1.5"></path><path d="M1443.54 712.19L1277.26 671.67" stroke="#132e65" stroke-width="1.5"></path><path d="M1443.54 712.19L1557 555.38" stroke="#132e65" stroke-width="1.5"></path><path d="M1443.54 712.19L1283.8 559.15" stroke="#132e65" stroke-width="1.5"></path><path d="M1443.54 712.19L1156.18 668.94" stroke="#132e65" stroke-width="1.5"></path><path d="M1574.87 -108.52L1574.87 -108.52" stroke="#132e65" stroke-width="1.5"></path><path d="M1587.71 78.44L1587.71 78.44" stroke="#132e65" stroke-width="1.5"></path><path d="M1587.71 78.44L1547.68 245.84" stroke="#132e65" stroke-width="1.5"></path><path d="M1587.71 78.44L1574.87 -108.52" stroke="#132e65" stroke-width="1.5"></path><path d="M1547.68 245.84L1547.68 245.84" stroke="#132e65" stroke-width="1.5"></path><path d="M1547.68 245.84L1594.83 353.36" stroke="#132e65" stroke-width="1.5"></path><path d="M1547.68 245.84L1294.09 212.4" stroke="#132e65" stroke-width="1.5"></path><path d="M1547.68 245.84L1308.38 368.97" stroke="#132e65" stroke-width="1.5"></path><path d="M1547.68 245.84L1292.14 81.55" stroke="#132e65" stroke-width="1.5"></path><path d="M1594.83 353.36L1594.83 353.36" stroke="#132e65" stroke-width="1.5"></path><path d="M1594.83 353.36L1557 555.38" stroke="#132e65" stroke-width="1.5"></path><path d="M1594.83 353.36L1406.78 550.87" stroke="#132e65" stroke-width="1.5"></path><path d="M1594.83 353.36L1587.71 78.44" stroke="#132e65" stroke-width="1.5"></path><path d="M1557 555.38L1557 555.38" stroke="#132e65" stroke-width="1.5"></path><path d="M1557 555.38L1586.91 680.32" stroke="#132e65" stroke-width="1.5"></path><path d="M1557 555.38L1447.48 343.41" stroke="#132e65" stroke-width="1.5"></path><path d="M1557 555.38L1283.8 559.15" stroke="#132e65" stroke-width="1.5"></path><path d="M1586.91 680.32L1586.91 680.32" stroke="#132e65" stroke-width="1.5"></path><path d="M1586.91 680.32L1406.78 550.87" stroke="#132e65" stroke-width="1.5"></path><path d="M1586.91 680.32L1277.26 671.67" stroke="#132e65" stroke-width="1.5"></path><path d="M1586.91 680.32L1283.8 559.15" stroke="#132e65" stroke-width="1.5"></path><circle r="5" cx="-101.82" cy="380.89" fill="#132e65"></circle><circle r="5" cx="-71.52" cy="560.05" fill="#132e65"></circle><circle r="5" cx="-39.09" cy="664.32" fill="#132e65"></circle><circle r="5" cx="110.5" cy="350.03" fill="#132e65"></circle><circle r="5" cx="76.53" cy="515.02" fill="#132e65"></circle><circle r="5" cx="75.04" cy="690.99" fill="#132e65"></circle><circle r="5" cx="237.07" cy="386.48" fill="#132e65"></circle><circle r="5" cx="216.11" cy="539.91" fill="#132e65"></circle><circle r="5" cx="204.69" cy="656.47" fill="#132e65"></circle><circle r="5" cx="356.33" cy="556.62" fill="#132e65"></circle><circle r="5" cx="380.01" cy="643.64" fill="#132e65"></circle><circle r="5" cx="522.7" cy="523.54" fill="#132e65"></circle><circle r="5" cx="491.01" cy="697.47" fill="#132e65"></circle><circle r="5" cx="680.3" cy="231.8" fill="#132e65"></circle><circle r="5" cx="663.48" cy="373.42" fill="#132e65"></circle><circle r="5" cx="669.88" cy="488.92" fill="#132e65"></circle><circle r="5" cx="820.05" cy="196.27" fill="#132e65"></circle><circle r="5" cx="797.23" cy="396.02" fill="#132e65"></circle><circle r="5" cx="828.7" cy="545.19" fill="#132e65"></circle><circle r="5" cx="861.81" cy="707.56" fill="#132e65"></circle><circle r="5" cx="971.14" cy="-111.61" fill="#132e65"></circle><circle r="5" cx="1008.7" cy="78.07" fill="#132e65"></circle><circle r="5" cx="975.38" cy="223.49" fill="#132e65"></circle><circle r="5" cx="977.27" cy="490.07" fill="#132e65"></circle><circle r="5" cx="956.44" cy="692" fill="#132e65"></circle><circle r="5" cx="1156.47" cy="-54.72" fill="#132e65"></circle><circle r="5" cx="1151.66" cy="54.83" fill="#132e65"></circle><circle r="5" cx="1108.55" cy="230.12" fill="#132e65"></circle><circle r="5" cx="1120" cy="391.79" fill="#132e65"></circle><circle r="5" cx="1121.73" cy="537.7" fill="#132e65"></circle><circle r="5" cx="1156.18" cy="668.94" fill="#132e65"></circle><circle r="5" cx="1299.84" cy="-42.85" fill="#132e65"></circle><circle r="5" cx="1292.14" cy="81.55" fill="#132e65"></circle><circle r="5" cx="1294.09" cy="212.4" fill="#132e65"></circle><circle r="5" cx="1308.38" cy="368.97" fill="#132e65"></circle><circle r="5" cx="1283.8" cy="559.15" fill="#132e65"></circle><circle r="5" cx="1277.26" cy="671.67" fill="#132e65"></circle><circle r="5" cx="1446" cy="-73.23" fill="#132e65"></circle><circle r="5" cx="1447.48" cy="343.41" fill="#132e65"></circle><circle r="5" cx="1406.78" cy="550.87" fill="#132e65"></circle><circle r="5" cx="1443.54" cy="712.19" fill="#132e65"></circle><circle r="5" cx="1574.87" cy="-108.52" fill="#132e65"></circle><circle r="5" cx="1587.71" cy="78.44" fill="#132e65"></circle><circle r="5" cx="1547.68" cy="245.84" fill="#132e65"></circle><circle r="5" cx="1594.83" cy="353.36" fill="#132e65"></circle><circle r="5" cx="1557" cy="555.38" fill="#132e65"></circle><circle r="5" cx="1586.91" cy="680.32" fill="#132e65"></circle><path d="M-64.63 671.97L-64.63 671.97" stroke="hsl(228.5, 77.2%, 51.5%)" stroke-width="1.5"></path><path d="M-64.63 671.97L-73.74 548.48" stroke="hsl(228.5, 77.2%, 51.5%)" stroke-width="1.5"></path><path d="M-64.63 671.97L79.58 674.51" stroke="hsl(228.5, 77.2%, 51.5%)" stroke-width="1.5"></path><path d="M-64.63 671.97L48.29 548.94" stroke="hsl(228.5, 77.2%, 51.5%)" stroke-width="1.5"></path><path d="M-64.63 671.97L236.97 671.22" stroke="hsl(228.5, 77.2%, 51.5%)" stroke-width="1.5"></path><path d="M-64.63 671.97L225.94 515.43" stroke="hsl(228.5, 77.2%, 51.5%)" stroke-width="1.5"></path><path d="M225.94 515.43L225.94 515.43" stroke="hsl(228.5, 77.2%, 51.5%)" stroke-width="1.5"></path><path d="M225.94 515.43L236.97 671.22" stroke="hsl(228.5, 77.2%, 51.5%)" stroke-width="1.5"></path><path d="M225.94 515.43L402.87 520.3" stroke="hsl(228.5, 77.2%, 51.5%)" stroke-width="1.5"></path><path d="M225.94 515.43L48.29 548.94" stroke="hsl(228.5, 77.2%, 51.5%)" stroke-width="1.5"></path><path d="M225.94 515.43L79.58 674.51" stroke="hsl(228.5, 77.2%, 51.5%)" stroke-width="1.5"></path><path d="M803 552.73L803 552.73" stroke="hsl(228.5, 77.2%, 51.5%)" stroke-width="1.5"></path><path d="M803 552.73L707.87 542.57" stroke="hsl(228.5, 77.2%, 51.5%)" stroke-width="1.5"></path><path d="M803 552.73L837.97 663.3" stroke="hsl(228.5, 77.2%, 51.5%)" stroke-width="1.5"></path><path d="M977.73 362.29L977.73 362.29" stroke="hsl(228.5, 77.2%, 51.5%)" stroke-width="1.5"></path><path d="M977.73 362.29L985.12 259.96" stroke="hsl(228.5, 77.2%, 51.5%)" stroke-width="1.5"></path><path d="M977.73 362.29L856.07 339.43" stroke="hsl(228.5, 77.2%, 51.5%)" stroke-width="1.5"></path><path d="M977.73 362.29L1157.42 358.85" stroke="hsl(228.5, 77.2%, 51.5%)" stroke-width="1.5"></path><path d="M977.73 362.29L957.28 547" stroke="hsl(228.5, 77.2%, 51.5%)" stroke-width="1.5"></path><path d="M977.73 362.29L1148.39 518.62" stroke="hsl(228.5, 77.2%, 51.5%)" stroke-width="1.5"></path><path d="M957.28 547L957.28 547" stroke="hsl(228.5, 77.2%, 51.5%)" stroke-width="1.5"></path><path d="M957.28 547L964.69 654.41" stroke="hsl(228.5, 77.2%, 51.5%)" stroke-width="1.5"></path><path d="M957.28 547L803 552.73" stroke="hsl(228.5, 77.2%, 51.5%)" stroke-width="1.5"></path><path d="M1397.1 208.53L1397.1 208.53" stroke="hsl(228.5, 77.2%, 51.5%)" stroke-width="1.5"></path><path d="M1397.1 208.53L1297.37 242.94" stroke="hsl(228.5, 77.2%, 51.5%)" stroke-width="1.5"></path><path d="M1397.1 208.53L1404.46 74.57" stroke="hsl(228.5, 77.2%, 51.5%)" stroke-width="1.5"></path><path d="M1397.1 208.53L1542.84 254.55" stroke="hsl(228.5, 77.2%, 51.5%)" stroke-width="1.5"></path><path d="M1397.1 208.53L1423.53 390.16" stroke="hsl(228.5, 77.2%, 51.5%)" stroke-width="1.5"></path><path d="M1397.1 208.53L1281.45 40.69" stroke="hsl(228.5, 77.2%, 51.5%)" stroke-width="1.5"></path><path d="M1423.53 390.16L1423.53 390.16" stroke="hsl(228.5, 77.2%, 51.5%)" stroke-width="1.5"></path><path d="M1423.53 390.16L1434.05 493.85" stroke="hsl(228.5, 77.2%, 51.5%)" stroke-width="1.5"></path><path d="M1423.53 390.16L1299.05 397.16" stroke="hsl(228.5, 77.2%, 51.5%)" stroke-width="1.5"></path><path d="M1423.53 390.16L1568.67 385.18" stroke="hsl(228.5, 77.2%, 51.5%)" stroke-width="1.5"></path><path d="M1423.53 390.16L1305.26 500.83" stroke="hsl(228.5, 77.2%, 51.5%)" stroke-width="1.5"></path><path d="M1423.53 390.16L1542.84 254.55" stroke="hsl(228.5, 77.2%, 51.5%)" stroke-width="1.5"></path><path d="M1434.05 493.85L1434.05 493.85" stroke="hsl(228.5, 77.2%, 51.5%)" stroke-width="1.5"></path><path d="M1434.05 493.85L1305.26 500.83" stroke="hsl(228.5, 77.2%, 51.5%)" stroke-width="1.5"></path><path d="M1434.05 493.85L1299.05 397.16" stroke="hsl(228.5, 77.2%, 51.5%)" stroke-width="1.5"></path><path d="M1434.05 493.85L1601.93 527.53" stroke="hsl(228.5, 77.2%, 51.5%)" stroke-width="1.5"></path><path d="M1434.05 493.85L1568.67 385.18" stroke="hsl(228.5, 77.2%, 51.5%)" stroke-width="1.5"></path><path d="M1434.05 493.85L1457.33 683.03" stroke="hsl(228.5, 77.2%, 51.5%)" stroke-width="1.5"></path><path d="M-73.74 548.48L-73.74 548.48" stroke="hsl(228.5, 77.2%, 51.5%)" stroke-width="1.5"></path><path d="M-73.74 548.48L48.29 548.94" stroke="hsl(228.5, 77.2%, 51.5%)" stroke-width="1.5"></path><path d="M-73.74 548.48L79.58 674.51" stroke="hsl(228.5, 77.2%, 51.5%)" stroke-width="1.5"></path><path d="M-73.74 548.48L225.94 515.43" stroke="hsl(228.5, 77.2%, 51.5%)" stroke-width="1.5"></path><path d="M-73.74 548.48L236.97 671.22" stroke="hsl(228.5, 77.2%, 51.5%)" stroke-width="1.5"></path><path d="M48.29 548.94L48.29 548.94" stroke="hsl(228.5, 77.2%, 51.5%)" stroke-width="1.5"></path><path d="M48.29 548.94L79.58 674.51" stroke="hsl(228.5, 77.2%, 51.5%)" stroke-width="1.5"></path><path d="M79.58 674.51L79.58 674.51" stroke="hsl(228.5, 77.2%, 51.5%)" stroke-width="1.5"></path><path d="M79.58 674.51L236.97 671.22" stroke="hsl(228.5, 77.2%, 51.5%)" stroke-width="1.5"></path><path d="M79.58 674.51L406.68 676.03" stroke="hsl(228.5, 77.2%, 51.5%)" stroke-width="1.5"></path><path d="M236.97 671.22L236.97 671.22" stroke="hsl(228.5, 77.2%, 51.5%)" stroke-width="1.5"></path><path d="M236.97 671.22L406.68 676.03" stroke="hsl(228.5, 77.2%, 51.5%)" stroke-width="1.5"></path><path d="M236.97 671.22L402.87 520.3" stroke="hsl(228.5, 77.2%, 51.5%)" stroke-width="1.5"></path><path d="M236.97 671.22L48.29 548.94" stroke="hsl(228.5, 77.2%, 51.5%)" stroke-width="1.5"></path><path d="M402.87 520.3L402.87 520.3" stroke="hsl(228.5, 77.2%, 51.5%)" stroke-width="1.5"></path><path d="M402.87 520.3L532.87 538.32" stroke="hsl(228.5, 77.2%, 51.5%)" stroke-width="1.5"></path><path d="M402.87 520.3L406.68 676.03" stroke="hsl(228.5, 77.2%, 51.5%)" stroke-width="1.5"></path><path d="M402.87 520.3L532.41 686.32" stroke="hsl(228.5, 77.2%, 51.5%)" stroke-width="1.5"></path><path d="M406.68 676.03L406.68 676.03" stroke="hsl(228.5, 77.2%, 51.5%)" stroke-width="1.5"></path><path d="M406.68 676.03L532.41 686.32" stroke="hsl(228.5, 77.2%, 51.5%)" stroke-width="1.5"></path><path d="M406.68 676.03L532.87 538.32" stroke="hsl(228.5, 77.2%, 51.5%)" stroke-width="1.5"></path><path d="M532.87 538.32L532.87 538.32" stroke="hsl(228.5, 77.2%, 51.5%)" stroke-width="1.5"></path><path d="M532.87 538.32L532.41 686.32" stroke="hsl(228.5, 77.2%, 51.5%)" stroke-width="1.5"></path><path d="M532.87 538.32L707.87 542.57" stroke="hsl(228.5, 77.2%, 51.5%)" stroke-width="1.5"></path><path d="M532.41 686.32L532.41 686.32" stroke="hsl(228.5, 77.2%, 51.5%)" stroke-width="1.5"></path><path d="M532.41 686.32L658.87 682.78" stroke="hsl(228.5, 77.2%, 51.5%)" stroke-width="1.5"></path><path d="M655.16 398.98L655.16 398.98" stroke="hsl(228.5, 77.2%, 51.5%)" stroke-width="1.5"></path><path d="M655.16 398.98L707.87 542.57" stroke="hsl(228.5, 77.2%, 51.5%)" stroke-width="1.5"></path><path d="M655.16 398.98L532.87 538.32" stroke="hsl(228.5, 77.2%, 51.5%)" stroke-width="1.5"></path><path d="M655.16 398.98L856.07 339.43" stroke="hsl(228.5, 77.2%, 51.5%)" stroke-width="1.5"></path><path d="M655.16 398.98L803 552.73" stroke="hsl(228.5, 77.2%, 51.5%)" stroke-width="1.5"></path><path d="M655.16 398.98L402.87 520.3" stroke="hsl(228.5, 77.2%, 51.5%)" stroke-width="1.5"></path><path d="M707.87 542.57L707.87 542.57" stroke="hsl(228.5, 77.2%, 51.5%)" stroke-width="1.5"></path><path d="M707.87 542.57L658.87 682.78" stroke="hsl(228.5, 77.2%, 51.5%)" stroke-width="1.5"></path><path d="M707.87 542.57L837.97 663.3" stroke="hsl(228.5, 77.2%, 51.5%)" stroke-width="1.5"></path><path d="M707.87 542.57L532.41 686.32" stroke="hsl(228.5, 77.2%, 51.5%)" stroke-width="1.5"></path><path d="M658.87 682.78L658.87 682.78" stroke="hsl(228.5, 77.2%, 51.5%)" stroke-width="1.5"></path><path d="M658.87 682.78L837.97 663.3" stroke="hsl(228.5, 77.2%, 51.5%)" stroke-width="1.5"></path><path d="M658.87 682.78L532.87 538.32" stroke="hsl(228.5, 77.2%, 51.5%)" stroke-width="1.5"></path><path d="M658.87 682.78L803 552.73" stroke="hsl(228.5, 77.2%, 51.5%)" stroke-width="1.5"></path><path d="M658.87 682.78L406.68 676.03" stroke="hsl(228.5, 77.2%, 51.5%)" stroke-width="1.5"></path><path d="M856.07 339.43L856.07 339.43" stroke="hsl(228.5, 77.2%, 51.5%)" stroke-width="1.5"></path><path d="M856.07 339.43L985.12 259.96" stroke="hsl(228.5, 77.2%, 51.5%)" stroke-width="1.5"></path><path d="M837.97 663.3L837.97 663.3" stroke="hsl(228.5, 77.2%, 51.5%)" stroke-width="1.5"></path><path d="M837.97 663.3L964.69 654.41" stroke="hsl(228.5, 77.2%, 51.5%)" stroke-width="1.5"></path><path d="M837.97 663.3L957.28 547" stroke="hsl(228.5, 77.2%, 51.5%)" stroke-width="1.5"></path><path d="M837.97 663.3L1125.66 662.7" stroke="hsl(228.5, 77.2%, 51.5%)" stroke-width="1.5"></path><path d="M985.12 259.96L985.12 259.96" stroke="hsl(228.5, 77.2%, 51.5%)" stroke-width="1.5"></path><path d="M985.12 259.96L1157.42 358.85" stroke="hsl(228.5, 77.2%, 51.5%)" stroke-width="1.5"></path><path d="M964.69 654.41L964.69 654.41" stroke="hsl(228.5, 77.2%, 51.5%)" stroke-width="1.5"></path><path d="M964.69 654.41L1125.66 662.7" stroke="hsl(228.5, 77.2%, 51.5%)" stroke-width="1.5"></path><path d="M1153.69 -85.38L1153.69 -85.38" stroke="hsl(228.5, 77.2%, 51.5%)" stroke-width="1.5"></path><path d="M1153.69 -85.38L1291.62 -106.92" stroke="hsl(228.5, 77.2%, 51.5%)" stroke-width="1.5"></path><path d="M1153.69 -85.38L1281.45 40.69" stroke="hsl(228.5, 77.2%, 51.5%)" stroke-width="1.5"></path><path d="M1157.42 358.85L1157.42 358.85" stroke="hsl(228.5, 77.2%, 51.5%)" stroke-width="1.5"></path><path d="M1157.42 358.85L1299.05 397.16" stroke="hsl(228.5, 77.2%, 51.5%)" stroke-width="1.5"></path><path d="M1157.42 358.85L1148.39 518.62" stroke="hsl(228.5, 77.2%, 51.5%)" stroke-width="1.5"></path><path d="M1157.42 358.85L1297.37 242.94" stroke="hsl(228.5, 77.2%, 51.5%)" stroke-width="1.5"></path><path d="M1148.39 518.62L1148.39 518.62" stroke="hsl(228.5, 77.2%, 51.5%)" stroke-width="1.5"></path><path d="M1148.39 518.62L1125.66 662.7" stroke="hsl(228.5, 77.2%, 51.5%)" stroke-width="1.5"></path><path d="M1148.39 518.62L1305.26 500.83" stroke="hsl(228.5, 77.2%, 51.5%)" stroke-width="1.5"></path><path d="M1125.66 662.7L1125.66 662.7" stroke="hsl(228.5, 77.2%, 51.5%)" stroke-width="1.5"></path><path d="M1125.66 662.7L1285.79 702.97" stroke="hsl(228.5, 77.2%, 51.5%)" stroke-width="1.5"></path><path d="M1125.66 662.7L957.28 547" stroke="hsl(228.5, 77.2%, 51.5%)" stroke-width="1.5"></path><path d="M1125.66 662.7L1305.26 500.83" stroke="hsl(228.5, 77.2%, 51.5%)" stroke-width="1.5"></path><path d="M1291.62 -106.92L1291.62 -106.92" stroke="hsl(228.5, 77.2%, 51.5%)" stroke-width="1.5"></path><path d="M1291.62 -106.92L1405.26 -64.51" stroke="hsl(228.5, 77.2%, 51.5%)" stroke-width="1.5"></path><path d="M1291.62 -106.92L1281.45 40.69" stroke="hsl(228.5, 77.2%, 51.5%)" stroke-width="1.5"></path><path d="M1281.45 40.69L1281.45 40.69" stroke="hsl(228.5, 77.2%, 51.5%)" stroke-width="1.5"></path><path d="M1281.45 40.69L1404.46 74.57" stroke="hsl(228.5, 77.2%, 51.5%)" stroke-width="1.5"></path><path d="M1281.45 40.69L1405.26 -64.51" stroke="hsl(228.5, 77.2%, 51.5%)" stroke-width="1.5"></path><path d="M1281.45 40.69L1297.37 242.94" stroke="hsl(228.5, 77.2%, 51.5%)" stroke-width="1.5"></path><path d="M1297.37 242.94L1297.37 242.94" stroke="hsl(228.5, 77.2%, 51.5%)" stroke-width="1.5"></path><path d="M1297.37 242.94L1299.05 397.16" stroke="hsl(228.5, 77.2%, 51.5%)" stroke-width="1.5"></path><path d="M1297.37 242.94L1423.53 390.16" stroke="hsl(228.5, 77.2%, 51.5%)" stroke-width="1.5"></path><path d="M1297.37 242.94L1404.46 74.57" stroke="hsl(228.5, 77.2%, 51.5%)" stroke-width="1.5"></path><path d="M1299.05 397.16L1299.05 397.16" stroke="hsl(228.5, 77.2%, 51.5%)" stroke-width="1.5"></path><path d="M1299.05 397.16L1305.26 500.83" stroke="hsl(228.5, 77.2%, 51.5%)" stroke-width="1.5"></path><path d="M1305.26 500.83L1305.26 500.83" stroke="hsl(228.5, 77.2%, 51.5%)" stroke-width="1.5"></path><path d="M1305.26 500.83L1285.79 702.97" stroke="hsl(228.5, 77.2%, 51.5%)" stroke-width="1.5"></path><path d="M1305.26 500.83L1157.42 358.85" stroke="hsl(228.5, 77.2%, 51.5%)" stroke-width="1.5"></path><path d="M1285.79 702.97L1285.79 702.97" stroke="hsl(228.5, 77.2%, 51.5%)" stroke-width="1.5"></path><path d="M1285.79 702.97L1457.33 683.03" stroke="hsl(228.5, 77.2%, 51.5%)" stroke-width="1.5"></path><path d="M1285.79 702.97L1148.39 518.62" stroke="hsl(228.5, 77.2%, 51.5%)" stroke-width="1.5"></path><path d="M1405.26 -64.51L1405.26 -64.51" stroke="hsl(228.5, 77.2%, 51.5%)" stroke-width="1.5"></path><path d="M1405.26 -64.51L1404.46 74.57" stroke="hsl(228.5, 77.2%, 51.5%)" stroke-width="1.5"></path><path d="M1404.46 74.57L1404.46 74.57" stroke="hsl(228.5, 77.2%, 51.5%)" stroke-width="1.5"></path><path d="M1404.46 74.57L1582.46 94.55" stroke="hsl(228.5, 77.2%, 51.5%)" stroke-width="1.5"></path><path d="M1457.33 683.03L1457.33 683.03" stroke="hsl(228.5, 77.2%, 51.5%)" stroke-width="1.5"></path><path d="M1457.33 683.03L1565.26 653.38" stroke="hsl(228.5, 77.2%, 51.5%)" stroke-width="1.5"></path><path d="M1605.96 -73.37L1605.96 -73.37" stroke="hsl(228.5, 77.2%, 51.5%)" stroke-width="1.5"></path><path d="M1605.96 -73.37L1582.46 94.55" stroke="hsl(228.5, 77.2%, 51.5%)" stroke-width="1.5"></path><path d="M1605.96 -73.37L1405.26 -64.51" stroke="hsl(228.5, 77.2%, 51.5%)" stroke-width="1.5"></path><path d="M1605.96 -73.37L1404.46 74.57" stroke="hsl(228.5, 77.2%, 51.5%)" stroke-width="1.5"></path><path d="M1605.96 -73.37L1291.62 -106.92" stroke="hsl(228.5, 77.2%, 51.5%)" stroke-width="1.5"></path><path d="M1605.96 -73.37L1542.84 254.55" stroke="hsl(228.5, 77.2%, 51.5%)" stroke-width="1.5"></path><path d="M1605.96 -73.37L1281.45 40.69" stroke="hsl(228.5, 77.2%, 51.5%)" stroke-width="1.5"></path><path d="M1582.46 94.55L1582.46 94.55" stroke="hsl(228.5, 77.2%, 51.5%)" stroke-width="1.5"></path><path d="M1582.46 94.55L1542.84 254.55" stroke="hsl(228.5, 77.2%, 51.5%)" stroke-width="1.5"></path><path d="M1542.84 254.55L1542.84 254.55" stroke="hsl(228.5, 77.2%, 51.5%)" stroke-width="1.5"></path><path d="M1542.84 254.55L1568.67 385.18" stroke="hsl(228.5, 77.2%, 51.5%)" stroke-width="1.5"></path><path d="M1542.84 254.55L1404.46 74.57" stroke="hsl(228.5, 77.2%, 51.5%)" stroke-width="1.5"></path><path d="M1542.84 254.55L1297.37 242.94" stroke="hsl(228.5, 77.2%, 51.5%)" stroke-width="1.5"></path><path d="M1568.67 385.18L1568.67 385.18" stroke="hsl(228.5, 77.2%, 51.5%)" stroke-width="1.5"></path><path d="M1601.93 527.53L1601.93 527.53" stroke="hsl(228.5, 77.2%, 51.5%)" stroke-width="1.5"></path><path d="M1601.93 527.53L1565.26 653.38" stroke="hsl(228.5, 77.2%, 51.5%)" stroke-width="1.5"></path><path d="M1601.93 527.53L1568.67 385.18" stroke="hsl(228.5, 77.2%, 51.5%)" stroke-width="1.5"></path><path d="M1601.93 527.53L1457.33 683.03" stroke="hsl(228.5, 77.2%, 51.5%)" stroke-width="1.5"></path><path d="M1601.93 527.53L1423.53 390.16" stroke="hsl(228.5, 77.2%, 51.5%)" stroke-width="1.5"></path><path d="M1565.26 653.38L1565.26 653.38" stroke="hsl(228.5, 77.2%, 51.5%)" stroke-width="1.5"></path><path d="M1565.26 653.38L1434.05 493.85" stroke="hsl(228.5, 77.2%, 51.5%)" stroke-width="1.5"></path><circle r="25" cx="-64.63" cy="671.97" fill="url(&quot;#SvgjsRadialGradient1009&quot;)"></circle><circle r="25" cx="225.94" cy="515.43" fill="url(&quot;#SvgjsRadialGradient1009&quot;)"></circle><circle r="25" cx="803" cy="552.73" fill="url(&quot;#SvgjsRadialGradient1009&quot;)"></circle><circle r="25" cx="977.73" cy="362.29" fill="url(&quot;#SvgjsRadialGradient1009&quot;)"></circle><circle r="25" cx="957.28" cy="547" fill="url(&quot;#SvgjsRadialGradient1009&quot;)"></circle><circle r="25" cx="1397.1" cy="208.53" fill="url(&quot;#SvgjsRadialGradient1009&quot;)"></circle><circle r="25" cx="1423.53" cy="390.16" fill="url(&quot;#SvgjsRadialGradient1009&quot;)"></circle><circle r="25" cx="1434.05" cy="493.85" fill="url(&quot;#SvgjsRadialGradient1009&quot;)"></circle><circle r="5" cx="-73.74" cy="548.48" fill="#8b9ad9"></circle><circle r="5" cx="48.29" cy="548.94" fill="#8b9ad9"></circle><circle r="5" cx="79.58" cy="674.51" fill="#8b9ad9"></circle><circle r="5" cx="236.97" cy="671.22" fill="#8b9ad9"></circle><circle r="5" cx="402.87" cy="520.3" fill="#8b9ad9"></circle><circle r="5" cx="406.68" cy="676.03" fill="#8b9ad9"></circle><circle r="5" cx="532.87" cy="538.32" fill="#8b9ad9"></circle><circle r="5" cx="532.41" cy="686.32" fill="#8b9ad9"></circle><circle r="5" cx="655.16" cy="398.98" fill="#8b9ad9"></circle><circle r="5" cx="707.87" cy="542.57" fill="#8b9ad9"></circle><circle r="5" cx="658.87" cy="682.78" fill="#8b9ad9"></circle><circle r="5" cx="856.07" cy="339.43" fill="#8b9ad9"></circle><circle r="5" cx="837.97" cy="663.3" fill="#8b9ad9"></circle><circle r="5" cx="985.12" cy="259.96" fill="#8b9ad9"></circle><circle r="5" cx="964.69" cy="654.41" fill="#8b9ad9"></circle><circle r="5" cx="1153.69" cy="-85.38" fill="#8b9ad9"></circle><circle r="5" cx="1157.42" cy="358.85" fill="#8b9ad9"></circle><circle r="5" cx="1148.39" cy="518.62" fill="#8b9ad9"></circle><circle r="5" cx="1125.66" cy="662.7" fill="#8b9ad9"></circle><circle r="5" cx="1291.62" cy="-106.92" fill="#8b9ad9"></circle><circle r="5" cx="1281.45" cy="40.69" fill="#8b9ad9"></circle><circle r="5" cx="1297.37" cy="242.94" fill="#8b9ad9"></circle><circle r="5" cx="1299.05" cy="397.16" fill="#8b9ad9"></circle><circle r="5" cx="1305.26" cy="500.83" fill="#8b9ad9"></circle><circle r="5" cx="1285.79" cy="702.97" fill="#8b9ad9"></circle><circle r="5" cx="1405.26" cy="-64.51" fill="#8b9ad9"></circle><circle r="5" cx="1404.46" cy="74.57" fill="#8b9ad9"></circle><circle r="5" cx="1457.33" cy="683.03" fill="#8b9ad9"></circle><circle r="5" cx="1605.96" cy="-73.37" fill="#8b9ad9"></circle><circle r="5" cx="1582.46" cy="94.55" fill="#8b9ad9"></circle><circle r="5" cx="1542.84" cy="254.55" fill="#8b9ad9"></circle><circle r="5" cx="1568.67" cy="385.18" fill="#8b9ad9"></circle><circle r="5" cx="1601.93" cy="527.53" fill="#8b9ad9"></circle><circle r="5" cx="1565.26" cy="653.38" fill="#8b9ad9"></circle></g><defs><mask id="SvgjsMask1008"><rect width="1440" height="560" fill="#ffffff"></rect></mask><radialGradient id="SvgjsRadialGradient1009"><stop stop-color="#ffffff" offset="0.1"></stop><stop stop-color="#1735b3" offset="0.2"></stop><stop stop-color="rgba(23, 53, 179, 0)" offset="1"></stop></radialGradient></defs></svg>